<svg width="25" height="24" viewBox="0 0 25 24" fill="none" xmlns="http://www.w3.org/2000/svg">
<path d="M17.25 10H19.25C21.25 10 22.25 9 22.25 7V5C22.25 3 21.25 2 19.25 2H17.25C15.25 2 14.25 3 14.25 5V7C14.25 9 15.25 10 17.25 10Z" stroke="#384250" stroke-width="1.5" stroke-miterlimit="10" stroke-linecap="round" stroke-linejoin="round"/>
<path d="M5.25 22H7.25C9.25 22 10.25 21 10.25 19V17C10.25 15 9.25 14 7.25 14H5.25C3.25 14 2.25 15 2.25 17V19C2.25 21 3.25 22 5.25 22Z" stroke="#384250" stroke-width="1.5" stroke-miterlimit="10" stroke-linecap="round" stroke-linejoin="round"/>
<path d="M6.25 10C8.45914 10 10.25 8.20914 10.25 6C10.25 3.79086 8.45914 2 6.25 2C4.04086 2 2.25 3.79086 2.25 6C2.25 8.20914 4.04086 10 6.25 10Z" stroke="#384250" stroke-width="1.5" stroke-miterlimit="10" stroke-linecap="round" stroke-linejoin="round"/>
<path d="M18.25 22C20.4591 22 22.25 20.2091 22.25 18C22.25 15.7909 20.4591 14 18.25 14C16.0409 14 14.25 15.7909 14.25 18C14.25 20.2091 16.0409 22 18.25 22Z" stroke="#384250" stroke-width="1.5" stroke-miterlimit="10" stroke-linecap="round" stroke-linejoin="round"/>
</svg>
