<svg width="22" height="22" viewBox="0 0 22 22" fill="none" xmlns="http://www.w3.org/2000/svg">
<path d="M5.5 9.16671V7.33337C5.5 4.29921 6.41667 1.83337 11 1.83337C15.5833 1.83337 16.5 4.29921 16.5 7.33337V9.16671" stroke="#E5E7EB" stroke-width="1.5" stroke-linecap="round" stroke-linejoin="round"/>
<path d="M11.0002 16.9583C12.2658 16.9583 13.2918 15.9323 13.2918 14.6667C13.2918 13.401 12.2658 12.375 11.0002 12.375C9.73451 12.375 8.7085 13.401 8.7085 14.6667C8.7085 15.9323 9.73451 16.9583 11.0002 16.9583Z" stroke="#E5E7EB" stroke-width="1.5" stroke-linecap="round" stroke-linejoin="round"/>
<path d="M15.5835 20.1666H6.41683C2.75016 20.1666 1.8335 19.25 1.8335 15.5833V13.75C1.8335 10.0833 2.75016 9.16663 6.41683 9.16663H15.5835C19.2502 9.16663 20.1668 10.0833 20.1668 13.75V15.5833C20.1668 19.25 19.2502 20.1666 15.5835 20.1666Z" stroke="#E5E7EB" stroke-width="1.5" stroke-linecap="round" stroke-linejoin="round"/>
</svg>
