<svg width="44" height="44" viewBox="0 0 44 44" fill="none" xmlns="http://www.w3.org/2000/svg">
<rect x="0.5" y="0.5" width="43" height="43" rx="11.5" fill="#1F2A37"/>
<path d="M26.63 17.58C26.63 17.58 26.66 16.63 26.63 16.32C26.46 14.28 25.13 13.58 22.52 13.58H16.21C13.05 13.58 12 14.63 12 17.79V26.21C12 27.47 12.38 28.74 13.37 29.55L14 30" stroke="#2E90FA" stroke-width="1.5" stroke-linecap="round" stroke-linejoin="round"/>
<path d="M26.7398 20.95V26.21C26.7398 29.37 25.6898 30.42 22.5298 30.42H17.2598" stroke="#2E90FA" stroke-width="1.5" stroke-linecap="round" stroke-linejoin="round"/>
<path d="M32.0002 16.74V25.81C32.0002 27.48 30.8802 28.06 29.5202 27.1L26.7402 25.15" stroke="#2E90FA" stroke-width="1.5" stroke-linecap="round" stroke-linejoin="round"/>
<path d="M32.0195 12.1899L12.0195 32.1899" stroke="#2E90FA" stroke-width="1.5" stroke-linecap="round" stroke-linejoin="round"/>
<rect x="0.5" y="0.5" width="43" height="43" rx="11.5" stroke="#384250"/>
</svg>
