<svg width="24" height="24" viewBox="0 0 24 24" fill="none" xmlns="http://www.w3.org/2000/svg">
<path d="M21.49 7.80863V7.81V16.19C21.49 17.9106 20.9791 19.2238 20.0964 20.1064C19.2138 20.9891 17.9006 21.5 16.18 21.5H7.81C6.08945 21.5 4.77634 20.9891 3.89377 20.1054C3.01114 19.2217 2.5 17.9059 2.5 16.18V7.81C2.5 6.08944 3.01093 4.77618 3.89355 3.89355C4.77618 3.01093 6.08944 2.5 7.81 2.5H16.19C17.9107 2.5 19.2237 3.01097 20.105 3.89333C20.9861 4.77559 21.4947 6.08838 21.49 7.80863ZM10.88 8.26C10.88 6.94213 9.80441 5.88 8.5 5.88C7.19733 5.88 6.12 6.9404 6.12 8.25C6.12 9.55096 7.1787 10.64 8.5 10.64C9.81614 10.64 10.88 9.57614 10.88 8.26ZM6.62 14.2C6.62 17.1661 9.03386 19.58 12 19.58C14.9648 19.58 17.3811 17.1671 17.36 14.1981C17.359 13.2154 16.5681 12.42 15.59 12.42H8.39C7.40878 12.42 6.62 13.229 6.62 14.2ZM13.12 8.24C13.12 9.55787 14.1956 10.62 15.5 10.62C16.8044 10.62 17.88 9.55787 17.88 8.24C17.88 6.92386 16.8161 5.86 15.5 5.86C14.1839 5.86 13.12 6.92386 13.12 8.24Z" fill="white" stroke="white"/>
</svg>
