<svg width="24" height="24" viewBox="0 0 24 24" fill="none" xmlns="http://www.w3.org/2000/svg">
<path d="M21.49 7.80863V7.81V16.19C21.49 17.9106 20.9791 19.2238 20.0964 20.1064C19.2138 20.9891 17.9006 21.5 16.18 21.5H7.81C6.08945 21.5 4.77634 20.9891 3.89377 20.1054C3.01114 19.2217 2.5 17.9059 2.5 16.18V7.81C2.5 6.08944 3.01093 4.77618 3.89355 3.89355C4.77618 3.01093 6.08944 2.5 7.81 2.5H16.19C17.9107 2.5 19.2237 3.01097 20.105 3.89333C20.9861 4.77559 21.4947 6.08838 21.49 7.80863ZM6.33845 13.8818L6.33639 13.8828C5.71464 14.1937 5.45557 14.9427 5.77399 15.566C5.99311 16.0019 6.43061 16.25 6.89 16.25C7.08296 16.25 7.27911 16.1995 7.44361 16.1172C8.62089 15.5286 9.62694 14.6405 10.3552 13.5486C10.9882 12.6101 10.9883 11.39 10.3553 10.4515C9.62752 9.36031 8.62231 8.47267 7.44601 7.88399C6.82965 7.56912 6.0755 7.81748 5.77157 8.43883C5.46263 9.05995 5.70471 9.81445 6.34048 10.1193C7.11863 10.5092 7.792 11.109 8.28461 11.8383C8.35201 11.9402 8.3518 12.0609 8.28397 12.1626L8.28317 12.1639C7.80104 12.8916 7.12787 13.4916 6.33845 13.8818ZM13 16.25H17C17.6861 16.25 18.25 15.6861 18.25 15C18.25 14.3139 17.6861 13.75 17 13.75H13C12.3139 13.75 11.75 14.3139 11.75 15C11.75 15.6861 12.3139 16.25 13 16.25Z" fill="white" stroke="white"/>
</svg>
