<svg width="25" height="24" viewBox="0 0 25 24" fill="none" xmlns="http://www.w3.org/2000/svg">
<path d="M14.367 3.2197L14.3681 3.22052L21.2967 8.75942C21.2969 8.75958 21.2971 8.75975 21.2973 8.75992C21.5963 9.00092 21.8686 9.40106 22.0469 9.8682C22.225 10.3352 22.2891 10.8166 22.2269 11.1986C22.2269 11.1989 22.2268 11.1991 22.2268 11.1994L20.8974 19.1561C20.8973 19.1564 20.8972 19.1567 20.8972 19.157C20.6975 20.3271 19.5353 21.31 18.3503 21.31H7.15027C5.9546 21.31 4.80302 20.3365 4.60337 19.1572C4.60334 19.157 4.60331 19.1568 4.60327 19.1566L3.27343 11.1976L3.27344 11.1976L3.27291 11.1945C3.20694 10.8142 3.26836 10.3343 3.44617 9.8682C3.62396 9.4022 3.89814 9.00243 4.20139 8.76139L4.20282 8.76024L11.1328 3.21024L11.1331 3.21005C12.0093 2.5074 13.479 2.50594 14.367 3.2197ZM9.75027 13C9.75027 14.6561 11.0941 16 12.7503 16C14.4064 16 15.7503 14.6561 15.7503 13C15.7503 11.3438 14.4064 9.99997 12.7503 9.99997C11.0941 9.99997 9.75027 11.3438 9.75027 13Z" fill="#156FEE" stroke="#156FEE"/>
</svg>
