<svg width="25" height="24" viewBox="0 0 25 24" fill="none" xmlns="http://www.w3.org/2000/svg">
<path d="M3.25 9.10998V14.88C3.25 17 3.25 17 5.25 18.35L10.75 21.53C11.58 22.01 12.93 22.01 13.75 21.53L19.25 18.35C21.25 17 21.25 17 21.25 14.89V9.10998C21.25 6.99998 21.25 6.99999 19.25 5.64999L13.75 2.46999C12.93 1.98999 11.58 1.98999 10.75 2.46999L5.25 5.64999C3.25 6.99999 3.25 6.99998 3.25 9.10998Z" stroke="#384250" stroke-width="1.5" stroke-linecap="round" stroke-linejoin="round"/>
<path d="M12.25 15C13.9069 15 15.25 13.6569 15.25 12C15.25 10.3431 13.9069 9 12.25 9C10.5931 9 9.25 10.3431 9.25 12C9.25 13.6569 10.5931 15 12.25 15Z" stroke="#384250" stroke-width="1.5" stroke-linecap="round" stroke-linejoin="round"/>
</svg>
