<svg width="44" height="44" viewBox="0 0 44 44" fill="none" xmlns="http://www.w3.org/2000/svg">
<rect x="0.5" y="0.5" width="43" height="43" rx="11.5" fill="#1F2A37"/>
<path d="M14.2598 21.0199V25.9899C14.2598 27.8099 14.2598 27.8099 15.9798 28.9699L20.7098 31.6999C21.4198 32.1099 22.5798 32.1099 23.2898 31.6999L28.0198 28.9699C29.7398 27.8099 29.7398 27.8099 29.7398 25.9899V21.0199C29.7398 19.1999 29.7398 19.1999 28.0198 18.0399L23.2898 15.3099C22.5798 14.8999 21.4198 14.8999 20.7098 15.3099L15.9798 18.0399C14.2598 19.1999 14.2598 19.1999 14.2598 21.0199Z" stroke="#2E90FA" stroke-width="1.5" stroke-linecap="round" stroke-linejoin="round"/>
<path d="M27.5 17.63V15C27.5 13 26.5 12 24.5 12H19.5C17.5 12 16.5 13 16.5 15V17.56" stroke="#2E90FA" stroke-width="1.5" stroke-linecap="round" stroke-linejoin="round"/>
<path d="M22.6298 20.99L23.1998 21.88C23.2898 22.02 23.4898 22.16 23.6398 22.2L24.6598 22.46C25.2898 22.62 25.4598 23.16 25.0498 23.66L24.3798 24.47C24.2798 24.6 24.1998 24.83 24.2098 24.99L24.2698 26.04C24.3098 26.69 23.8498 27.02 23.2498 26.78L22.2698 26.39C22.1198 26.33 21.8698 26.33 21.7198 26.39L20.7398 26.78C20.1398 27.02 19.6798 26.68 19.7198 26.04L19.7798 24.99C19.7898 24.83 19.7098 24.59 19.6098 24.47L18.9398 23.66C18.5298 23.16 18.6998 22.62 19.3298 22.46L20.3498 22.2C20.5098 22.16 20.7098 22.01 20.7898 21.88L21.3598 20.99C21.7198 20.45 22.2798 20.45 22.6298 20.99Z" stroke="#2E90FA" stroke-width="1.5" stroke-linecap="round" stroke-linejoin="round"/>
<rect x="0.5" y="0.5" width="43" height="43" rx="11.5" stroke="#384250"/>
</svg>
